<svg width="1200" height="800" xmlns="http://www.w3.org/2000/svg"><g><path d="M-26,-48L-77,494L-35,133Z" fill="#e8fee8" stroke="#e8fee8" fill-opacity="1" stroke-opacity="1"/><path d="M-26,-48L-35,133L46,-23Z" fill="#f7fcf2" stroke="#f7fcf2" fill-opacity="1" stroke-opacity="1"/><path d="M-26,-48L46,-23L248,-36Z" fill="#eef9eb" stroke="#eef9eb" fill-opacity="1" stroke-opacity="1"/><path d="M-26,-48L248,-36L631,-65Z" fill="#daf1dd" stroke="#daf1dd" fill-opacity="1" stroke-opacity="1"/><path d="M-26,-48L631,-65L1289,-111Z" fill="#aedde7" stroke="#aedde7" fill-opacity="1" stroke-opacity="1"/><path d="M46,-23L-35,133L112,117Z" fill="#effbe9" stroke="#effbe9" fill-opacity="1" stroke-opacity="1"/><path d="M46,-23L112,117L185,80Z" fill="#e9f8e3" stroke="#e9f8e3" fill-opacity="1" stroke-opacity="1"/><path d="M46,-23L185,80L248,-36Z" fill="#e6f6e3" stroke="#e6f6e3" fill-opacity="1" stroke-opacity="1"/><path d="M248,-36L185,80L372,46Z" fill="#daf1db" stroke="#daf1db" fill-opacity="1" stroke-opacity="1"/><path d="M248,-36L372,46L375,-22Z" fill="#d5efdb" stroke="#d5efdb" fill-opacity="1" stroke-opacity="1"/><path d="M248,-36L375,-22L631,-65Z" fill="#caebde" stroke="#caebde" fill-opacity="1" stroke-opacity="1"/><path d="M375,-22L372,46L557,85Z" fill="#c6eadb" stroke="#c6eadb" fill-opacity="1" stroke-opacity="1"/><path d="M375,-22L557,85L576,-33Z" fill="#bee6e0" stroke="#bee6e0" fill-opacity="1" stroke-opacity="1"/><path d="M375,-22L576,-33L631,-65Z" fill="#bce5e2" stroke="#bce5e2" fill-opacity="1" stroke-opacity="1"/><path d="M576,-33L557,85L691,42Z" fill="#afdfe3" stroke="#afdfe3" fill-opacity="1" stroke-opacity="1"/><path d="M576,-33L691,42L631,-65Z" fill="#aedde7" stroke="#aedde7" fill-opacity="1" stroke-opacity="1"/><path d="M631,-65L691,42L860,-49Z" fill="#a3d5e7" stroke="#a3d5e7" fill-opacity="1" stroke-opacity="1"/><path d="M631,-65L860,-49L919,-54Z" fill="#9bcce2" stroke="#9bcce2" fill-opacity="1" stroke-opacity="1"/><path d="M631,-65L919,-54L1289,-111Z" fill="#8cb8d6" stroke="#8cb8d6" fill-opacity="1" stroke-opacity="1"/><path d="M860,-49L691,42L852,90Z" fill="#99cce0" stroke="#99cce0" fill-opacity="1" stroke-opacity="1"/><path d="M860,-49L852,90L919,-54Z" fill="#93c3dd" stroke="#93c3dd" fill-opacity="1" stroke-opacity="1"/><path d="M919,-54L852,90L1004,113Z" fill="#8cbbd4" stroke="#8cbbd4" fill-opacity="1" stroke-opacity="1"/><path d="M919,-54L1004,113L1087,-41Z" fill="#86b0d1" stroke="#86b0d1" fill-opacity="1" stroke-opacity="1"/><path d="M919,-54L1087,-41L1289,-111Z" fill="#80a1c8" stroke="#80a1c8" fill-opacity="1" stroke-opacity="1"/><path d="M1087,-41L1004,113L1141,42Z" fill="#7ea4c7" stroke="#7ea4c7" fill-opacity="1" stroke-opacity="1"/><path d="M1087,-41L1141,42L1289,-111Z" fill="#8096c1" stroke="#8096c1" fill-opacity="1" stroke-opacity="1"/><path d="M1289,-111L1141,42L1232,77Z" fill="#808fbd" stroke="#808fbd" fill-opacity="1" stroke-opacity="1"/><path d="M1289,-111L1232,77L1332,247Z" fill="#7c85b1" stroke="#7c85b1" fill-opacity="1" stroke-opacity="1"/><path d="M-35,133L-77,494L-30,196Z" fill="#d7fce9" stroke="#d7fce9" fill-opacity="1" stroke-opacity="1"/><path d="M-35,133L-30,196L112,117Z" fill="#eafce5" stroke="#eafce5" fill-opacity="1" stroke-opacity="1"/><path d="M112,117L-30,196L78,252Z" fill="#defade" stroke="#defade" fill-opacity="1" stroke-opacity="1"/><path d="M112,117L78,252L268,216Z" fill="#d3f6d4" stroke="#d3f6d4" fill-opacity="1" stroke-opacity="1"/><path d="M112,117L268,216L185,80Z" fill="#d9f5d5" stroke="#d9f5d5" fill-opacity="1" stroke-opacity="1"/><path d="M185,80L268,216L372,46Z" fill="#d5f1d3" stroke="#d5f1d3" fill-opacity="1" stroke-opacity="1"/><path d="M372,46L268,216L350,280Z" fill="#c3efcb" stroke="#c3efcb" fill-opacity="1" stroke-opacity="1"/><path d="M372,46L350,280L580,200Z" fill="#b6eacf" stroke="#b6eacf" fill-opacity="1" stroke-opacity="1"/><path d="M372,46L580,200L557,85Z" fill="#b9e6d8" stroke="#b9e6d8" fill-opacity="1" stroke-opacity="1"/><path d="M557,85L580,200L704,189Z" fill="#a2dfd9" stroke="#a2dfd9" fill-opacity="1" stroke-opacity="1"/><path d="M557,85L704,189L691,42Z" fill="#a6dcdf" stroke="#a6dcdf" fill-opacity="1" stroke-opacity="1"/><path d="M691,42L704,189L852,90Z" fill="#9bd2dc" stroke="#9bd2dc" fill-opacity="1" stroke-opacity="1"/><path d="M852,90L704,189L844,268Z" fill="#88ccd3" stroke="#88ccd3" fill-opacity="1" stroke-opacity="1"/><path d="M852,90L844,268L1004,113Z" fill="#83bfcd" stroke="#83bfcd" fill-opacity="1" stroke-opacity="1"/><path d="M1004,113L844,268L1008,275Z" fill="#72b7c3" stroke="#72b7c3" fill-opacity="1" stroke-opacity="1"/><path d="M1004,113L1008,275L1126,179Z" fill="#6ea9bd" stroke="#6ea9bd" fill-opacity="1" stroke-opacity="1"/><path d="M1004,113L1126,179L1141,42Z" fill="#7aa2bf" stroke="#7aa2bf" fill-opacity="1" stroke-opacity="1"/><path d="M1141,42L1126,179L1232,77Z" fill="#7b97b9" stroke="#7b97b9" fill-opacity="1" stroke-opacity="1"/><path d="M1232,77L1126,179L1332,247Z" fill="#708dad" stroke="#708dad" fill-opacity="1" stroke-opacity="1"/><path d="M-30,196L-77,494L-44,392Z" fill="#c3f6f0" stroke="#c3f6f0" fill-opacity="1" stroke-opacity="1"/><path d="M-30,196L-44,392L78,252Z" fill="#d0fae4" stroke="#d0fae4" fill-opacity="1" stroke-opacity="1"/><path d="M78,252L-44,392L74,352Z" fill="#c0f5e5" stroke="#c0f5e5" fill-opacity="1" stroke-opacity="1"/><path d="M78,252L74,352L218,331Z" fill="#bcf3da" stroke="#bcf3da" fill-opacity="1" stroke-opacity="1"/><path d="M78,252L218,331L268,216Z" fill="#c0f3d1" stroke="#c0f3d1" fill-opacity="1" stroke-opacity="1"/><path d="M268,216L218,331L350,280Z" fill="#b4eecd" stroke="#b4eecd" fill-opacity="1" stroke-opacity="1"/><path d="M350,280L218,331L390,325Z" fill="#a7ebce" stroke="#a7ebce" fill-opacity="1" stroke-opacity="1"/><path d="M350,280L390,325L580,200Z" fill="#a3e7ce" stroke="#a3e7ce" fill-opacity="1" stroke-opacity="1"/><path d="M580,200L390,325L549,426Z" fill="#8ee2d5" stroke="#8ee2d5" fill-opacity="1" stroke-opacity="1"/><path d="M580,200L549,426L619,413Z" fill="#7ddadb" stroke="#7ddadb" fill-opacity="1" stroke-opacity="1"/><path d="M580,200L619,413L704,189Z" fill="#89dbd7" stroke="#89dbd7" fill-opacity="1" stroke-opacity="1"/><path d="M704,189L619,413L844,268Z" fill="#7ad2d9" stroke="#7ad2d9" fill-opacity="1" stroke-opacity="1"/><path d="M844,268L619,413L857,342Z" fill="#68c9d9" stroke="#68c9d9" fill-opacity="1" stroke-opacity="1"/><path d="M844,268L857,342L1008,275Z" fill="#66bbcc" stroke="#66bbcc" fill-opacity="1" stroke-opacity="1"/><path d="M1008,275L857,342L1030,331Z" fill="#5ab1c8" stroke="#5ab1c8" fill-opacity="1" stroke-opacity="1"/><path d="M1008,275L1030,331L1126,179Z" fill="#5ea6bb" stroke="#5ea6bb" fill-opacity="1" stroke-opacity="1"/><path d="M1126,179L1030,331L1109,381Z" fill="#549fbb" stroke="#549fbb" fill-opacity="1" stroke-opacity="1"/><path d="M1126,179L1109,381L1283,331Z" fill="#5492b3" stroke="#5492b3" fill-opacity="1" stroke-opacity="1"/><path d="M1126,179L1283,331L1332,247Z" fill="#5f8aa9" stroke="#5f8aa9" fill-opacity="1" stroke-opacity="1"/><path d="M1332,247L1283,331L1330,509Z" fill="#4578ab" stroke="#4578ab" fill-opacity="1" stroke-opacity="1"/><path d="M-44,392L-77,494L118,486Z" fill="#a7e7f2" stroke="#a7e7f2" fill-opacity="1" stroke-opacity="1"/><path d="M-44,392L118,486L74,352Z" fill="#adebea" stroke="#adebea" fill-opacity="1" stroke-opacity="1"/><path d="M74,352L118,486L218,331Z" fill="#a8ebdf" stroke="#a8ebdf" fill-opacity="1" stroke-opacity="1"/><path d="M218,331L118,486L261,558Z" fill="#92dfdf" stroke="#92dfdf" fill-opacity="1" stroke-opacity="1"/><path d="M218,331L261,558L390,325Z" fill="#95e2d7" stroke="#95e2d7" fill-opacity="1" stroke-opacity="1"/><path d="M390,325L261,558L383,546Z" fill="#7fd5d7" stroke="#7fd5d7" fill-opacity="1" stroke-opacity="1"/><path d="M390,325L383,546L549,426Z" fill="#7cd8db" stroke="#7cd8db" fill-opacity="1" stroke-opacity="1"/><path d="M549,426L383,546L485,574Z" fill="#67c7d8" stroke="#67c7d8" fill-opacity="1" stroke-opacity="1"/><path d="M549,426L485,574L648,488Z" fill="#5fc5de" stroke="#5fc5de" fill-opacity="1" stroke-opacity="1"/><path d="M549,426L648,488L619,413Z" fill="#64cce3" stroke="#64cce3" fill-opacity="1" stroke-opacity="1"/><path d="M619,413L648,488L857,342Z" fill="#5dc7e3" stroke="#5dc7e3" fill-opacity="1" stroke-opacity="1"/><path d="M857,342L648,488L847,521Z" fill="#4dbae1" stroke="#4dbae1" fill-opacity="1" stroke-opacity="1"/><path d="M857,342L847,521L1014,475Z" fill="#42abd8" stroke="#42abd8" fill-opacity="1" stroke-opacity="1"/><path d="M857,342L1014,475L1030,331Z" fill="#4baacd" stroke="#4baacd" fill-opacity="1" stroke-opacity="1"/><path d="M1030,331L1014,475L1109,381Z" fill="#3f9bc6" stroke="#3f9bc6" fill-opacity="1" stroke-opacity="1"/><path d="M1109,381L1014,475L1129,527Z" fill="#2e8dc8" stroke="#2e8dc8" fill-opacity="1" stroke-opacity="1"/><path d="M1109,381L1129,527L1283,331Z" fill="#3987bc" stroke="#3987bc" fill-opacity="1" stroke-opacity="1"/><path d="M1283,331L1129,527L1330,509Z" fill="#2f76b9" stroke="#2f76b9" fill-opacity="1" stroke-opacity="1"/><path d="M-77,494L-118,1013L-80,855Z" fill="#8a99ca" stroke="#8a99ca" fill-opacity="1" stroke-opacity="1"/><path d="M-77,494L-80,855L-39,706Z" fill="#91b4d9" stroke="#91b4d9" fill-opacity="1" stroke-opacity="1"/><path d="M-77,494L-39,706L81,623Z" fill="#90c7e1" stroke="#90c7e1" fill-opacity="1" stroke-opacity="1"/><path d="M-77,494L81,623L118,486Z" fill="#94d6e6" stroke="#94d6e6" fill-opacity="1" stroke-opacity="1"/><path d="M118,486L81,623L261,558Z" fill="#85cdd8" stroke="#85cdd8" fill-opacity="1" stroke-opacity="1"/><path d="M261,558L81,623L166,698Z" fill="#7cbacb" stroke="#7cbacb" fill-opacity="1" stroke-opacity="1"/><path d="M261,558L166,698L392,674Z" fill="#70b2c3" stroke="#70b2c3" fill-opacity="1" stroke-opacity="1"/><path d="M261,558L392,674L383,546Z" fill="#6cbcc9" stroke="#6cbcc9" fill-opacity="1" stroke-opacity="1"/><path d="M383,546L392,674L485,574Z" fill="#62b7cb" stroke="#62b7cb" fill-opacity="1" stroke-opacity="1"/><path d="M485,574L392,674L553,719Z" fill="#56a5c4" stroke="#56a5c4" fill-opacity="1" stroke-opacity="1"/><path d="M485,574L553,719L648,488Z" fill="#4fb0d2" stroke="#4fb0d2" fill-opacity="1" stroke-opacity="1"/><path d="M648,488L553,719L726,673Z" fill="#42a1d0" stroke="#42a1d0" fill-opacity="1" stroke-opacity="1"/><path d="M648,488L726,673L788,660Z" fill="#3ba0d3" stroke="#3ba0d3" fill-opacity="1" stroke-opacity="1"/><path d="M648,488L788,660L847,521Z" fill="#3ca8d8" stroke="#3ca8d8" fill-opacity="1" stroke-opacity="1"/><path d="M847,521L788,660L939,675Z" fill="#2c8dc9" stroke="#2c8dc9" fill-opacity="1" stroke-opacity="1"/><path d="M847,521L939,675L1014,475Z" fill="#2a91cb" stroke="#2a91cb" fill-opacity="1" stroke-opacity="1"/><path d="M1014,475L939,675L1129,527Z" fill="#2082c2" stroke="#2082c2" fill-opacity="1" stroke-opacity="1"/><path d="M1129,527L939,675L1096,696Z" fill="#176bb4" stroke="#176bb4" fill-opacity="1" stroke-opacity="1"/><path d="M1129,527L1096,696L1324,723Z" fill="#1453a5" stroke="#1453a5" fill-opacity="1" stroke-opacity="1"/><path d="M1129,527L1324,723L1330,509Z" fill="#1958a9" stroke="#1958a9" fill-opacity="1" stroke-opacity="1"/><path d="M1330,509L1324,723L1325,778Z" fill="#133994" stroke="#133994" fill-opacity="1" stroke-opacity="1"/><path d="M-39,706L-80,855L86,796Z" fill="#8497c2" stroke="#8497c2" fill-opacity="1" stroke-opacity="1"/><path d="M-39,706L86,796L81,623Z" fill="#84aaca" stroke="#84aaca" fill-opacity="1" stroke-opacity="1"/><path d="M81,623L86,796L166,698Z" fill="#7da7c3" stroke="#7da7c3" fill-opacity="1" stroke-opacity="1"/><path d="M166,698L86,796L178,802Z" fill="#7596b6" stroke="#7596b6" fill-opacity="1" stroke-opacity="1"/><path d="M166,698L178,802L392,674Z" fill="#6d9db7" stroke="#6d9db7" fill-opacity="1" stroke-opacity="1"/><path d="M392,674L178,802L389,822Z" fill="#638eac" stroke="#638eac" fill-opacity="1" stroke-opacity="1"/><path d="M392,674L389,822L553,719Z" fill="#5590b4" stroke="#5590b4" fill-opacity="1" stroke-opacity="1"/><path d="M553,719L389,822L548,809Z" fill="#4b81af" stroke="#4b81af" fill-opacity="1" stroke-opacity="1"/><path d="M553,719L548,809L703,810Z" fill="#3d7bb4" stroke="#3d7bb4" fill-opacity="1" stroke-opacity="1"/><path d="M553,719L703,810L726,673Z" fill="#3983bf" stroke="#3983bf" fill-opacity="1" stroke-opacity="1"/><path d="M726,673L703,810L845,802Z" fill="#2c72b6" stroke="#2c72b6" fill-opacity="1" stroke-opacity="1"/><path d="M726,673L845,802L788,660Z" fill="#2c7cbd" stroke="#2c7cbd" fill-opacity="1" stroke-opacity="1"/><path d="M788,660L845,802L939,675Z" fill="#2574b9" stroke="#2574b9" fill-opacity="1" stroke-opacity="1"/><path d="M939,675L845,802L919,782Z" fill="#1e62ae" stroke="#1e62ae" fill-opacity="1" stroke-opacity="1"/><path d="M939,675L919,782L1066,790Z" fill="#1758a7" stroke="#1758a7" fill-opacity="1" stroke-opacity="1"/><path d="M939,675L1066,790L1096,696Z" fill="#1356a7" stroke="#1356a7" fill-opacity="1" stroke-opacity="1"/><path d="M1096,696L1066,790L1325,778Z" fill="#0d3a95" stroke="#0d3a95" fill-opacity="1" stroke-opacity="1"/><path d="M1096,696L1325,778L1324,723Z" fill="#0e3391" stroke="#0e3391" fill-opacity="1" stroke-opacity="1"/><path d="M-80,855L-118,1013L101,919Z" fill="#7c7eac" stroke="#7c7eac" fill-opacity="1" stroke-opacity="1"/><path d="M-80,855L101,919L86,796Z" fill="#7a81b2" stroke="#7a81b2" fill-opacity="1" stroke-opacity="1"/><path d="M86,796L101,919L178,802Z" fill="#7283ac" stroke="#7283ac" fill-opacity="1" stroke-opacity="1"/><path d="M178,802L101,919L240,925Z" fill="#6a769f" stroke="#6a769f" fill-opacity="1" stroke-opacity="1"/><path d="M178,802L240,925L389,822Z" fill="#627aa0" stroke="#627aa0" fill-opacity="1" stroke-opacity="1"/><path d="M389,822L240,925L361,1031Z" fill="#566f90" stroke="#566f90" fill-opacity="1" stroke-opacity="1"/><path d="M389,822L361,1031L490,1009Z" fill="#4b6b8e" stroke="#4b6b8e" fill-opacity="1" stroke-opacity="1"/><path d="M389,822L490,1009L548,809Z" fill="#47689e" stroke="#47689e" fill-opacity="1" stroke-opacity="1"/><path d="M548,809L490,1009L662,1034Z" fill="#376296" stroke="#376296" fill-opacity="1" stroke-opacity="1"/><path d="M548,809L662,1034L703,810Z" fill="#315da4" stroke="#315da4" fill-opacity="1" stroke-opacity="1"/><path d="M703,810L662,1034L883,926Z" fill="#22539b" stroke="#22539b" fill-opacity="1" stroke-opacity="1"/><path d="M703,810L883,926L845,802Z" fill="#2155a5" stroke="#2155a5" fill-opacity="1" stroke-opacity="1"/><path d="M845,802L883,926L919,782Z" fill="#1a4ea1" stroke="#1a4ea1" fill-opacity="1" stroke-opacity="1"/><path d="M919,782L883,926L987,970Z" fill="#113b93" stroke="#113b93" fill-opacity="1" stroke-opacity="1"/><path d="M919,782L987,970L1066,790Z" fill="#0e3a95" stroke="#0e3a95" fill-opacity="1" stroke-opacity="1"/><path d="M1066,790L987,970L1124,957Z" fill="#032885" stroke="#032885" fill-opacity="1" stroke-opacity="1"/><path d="M1066,790L1124,957L1226,975Z" fill="#021c7d" stroke="#021c7d" fill-opacity="1" stroke-opacity="1"/><path d="M1066,790L1226,975L1325,778Z" fill="#061a81" stroke="#061a81" fill-opacity="1" stroke-opacity="1"/><path d="M-118,1013L361,1031L101,919Z" fill="#6c7893" stroke="#6c7893" fill-opacity="1" stroke-opacity="1"/><path d="M101,919L361,1031L240,925Z" fill="#60738f" stroke="#60738f" fill-opacity="1" stroke-opacity="1"/><path d="M361,1031L662,1034L490,1009Z" fill="#3f6786" stroke="#3f6786" fill-opacity="1" stroke-opacity="1"/><path d="M662,1034L1226,975L987,970Z" fill="#0b377f" stroke="#0b377f" fill-opacity="1" stroke-opacity="1"/><path d="M662,1034L987,970L883,926Z" fill="#17488d" stroke="#17488d" fill-opacity="1" stroke-opacity="1"/><path d="M987,970L1226,975L1124,957Z" fill="#002075" stroke="#002075" fill-opacity="1" stroke-opacity="1"/></g></svg>